<?xml version="1.0" encoding="UTF-8"?>
<svg width="100px" height="101px" viewBox="0 0 100 101" version="1.1" xmlns="http://www.w3.org/2000/svg" xmlns:xlink="http://www.w3.org/1999/xlink">
    <!-- Generator: Sketch 51.2 (57519) - http://www.bohemiancoding.com/sketch -->
    <title>Material/TitleIcon</title>
    <desc>Created with Sketch.</desc>
    <defs>
        <filter x="-21.4%" y="-21.4%" width="142.9%" height="142.9%" filterUnits="objectBoundingBox" id="filter-1">
            <feGaussianBlur stdDeviation="5.4" in="SourceGraphic"></feGaussianBlur>
        </filter>
        <circle id="path-2" cx="42" cy="42" r="42"></circle>
        <linearGradient x1="9.20579488%" y1="-34.6143879%" x2="36.9014372%" y2="26.4069931%" id="linearGradient-4">
            <stop stop-color="#FFE31F" offset="0%"></stop>
            <stop stop-color="#FCD909" offset="100%"></stop>
        </linearGradient>
        <linearGradient x1="21.4370657%" y1="30.6071644%" x2="111.840601%" y2="91.3910301%" id="linearGradient-5">
            <stop stop-color="#FFE442" offset="0%"></stop>
            <stop stop-color="#F6D408" offset="100%"></stop>
        </linearGradient>
        <linearGradient x1="0%" y1="35.3777885%" x2="98.0378432%" y2="35.3777885%" id="linearGradient-6">
            <stop stop-color="#FDE033" offset="0%"></stop>
            <stop stop-color="#FCD90A" offset="50.1226313%"></stop>
            <stop stop-color="#FCD90A" offset="57.8618964%"></stop>
            <stop stop-color="#F6D408" offset="100%"></stop>
        </linearGradient>
    </defs>
    <g id="Page-1" stroke="none" stroke-width="1" fill="none" fill-rule="evenodd">
        <g id="WEB_Product_Xwallet_Overview" transform="translate(-752.000000, -1198.000000)">
            <g id="Group-7" transform="translate(0.000000, 1102.000000)">
                <g id="Group-21" transform="translate(730.000000, 100.000000)">
                    <g id="Group-20" transform="translate(30.000000, 0.000000)">
                        <g>
                            <circle id="Mask" fill="#FCDD20" fill-rule="nonzero" filter="url(#filter-1)" cx="42" cy="46.2" r="37.8"></circle>
                            <g id="pic_bg_assets">
                                <mask id="mask-3" fill="white">
                                    <use xlink:href="#path-2"></use>
                                </mask>
                                <use id="Mask" fill="#D8D8D8" fill-rule="nonzero" xlink:href="#path-2"></use>
                                <g mask="url(#mask-3)">
                                    <g transform="translate(-10.200000, -0.600000)">
                                        <polygon id="Rectangle" fill="url(#linearGradient-4)" fill-rule="nonzero" points="9.9 0 94.2 0 94.2 86.4 9.9 86.4"></polygon>
                                        <g id="Group-5-Copy-2" opacity="0.699999988" stroke-width="1" fill="none" fill-rule="evenodd" transform="translate(58.200000, 22.800000)">
                                            <g id="Group-3">
                                                <polygon id="Clip-2" points="0.0511038182 0.101955501 42.2979366 0.101955501 42.2979366 25.0930431 0.0511038182 25.0930431"></polygon>
                                                <path d="M41.5604232,11.4995619 C42.4714207,12.0300816 42.4761371,12.8982723 41.5720667,13.4283459 L26.8498658,21.6234288 C25.9449111,22.1539485 24.4591051,22.1539485 23.5484023,21.6234288 L8.83784496,13.7899252 C7.9268474,13.2592568 7.92301534,12.3916609 8.82782266,11.8611412 L23.550171,3.66605831 C24.4542414,3.13613339 25.9388682,3.13553864 26.8498658,3.66605831 L41.5604232,11.4995619 Z" id="Fill-1" fill="url(#linearGradient-5)"></path>
                                            </g>
                                            <path d="M26.9035049,21.5456191 C25.9968213,22.0692722 24.5087145,22.0692722 23.5962728,21.5456191 L8.73395663,13.5121006 C8.27493054,13.2487334 8.0457866,12.9012942 8.04682011,12.5542952 L7.99573519,71.9158996 C7.99470168,72.2628986 8.22369797,72.6104845 8.6828717,72.8737049 L23.5450403,80.9073702 C23.9962412,81.1663357 24.5887377,81.2972123 25.1816772,81.3 L25.2197694,81.3 C25.8128565,81.2972123 26.403729,81.1663357 26.85242,80.9073702 L41.5728519,72.6166148 C42.022724,72.356769 42.2480292,72.0146118 42.2487674,71.6720145 L42.3,12.3104101 C42.2991141,12.6530074 42.0739566,12.9950179 41.6240845,13.2548637 L26.9035049,21.5456191 Z" id="Fill-4" fill="url(#linearGradient-6)"></path>
                                        </g>
                                        <g id="Group-5-Copy" opacity="0.800000012" stroke-width="1" fill="none" fill-rule="evenodd" transform="translate(0.000000, 26.400000)">
                                            <g id="Group-3">
                                                <polygon id="Clip-2" points="0.0887974146 0.00691110182 73.4964146 0.00691110182 73.4964146 43.2298606 0.0887974146 43.2298606"></polygon>
                                                <path d="M72.2149197,19.7194652 C73.7978587,20.6370173 73.8060538,22.1385831 72.2351514,23.0553637 L46.6540221,37.2290428 C45.081583,38.1465949 42.4998635,38.1465949 40.9174367,37.2290428 L15.3565391,23.6807276 C13.7736001,22.7629183 13.7669416,21.2623812 15.3391245,20.3448291 L40.9205099,6.17115006 C42.4914123,5.2546266 45.071083,5.25359795 46.6540221,6.17115006 L72.2149197,19.7194652 Z" id="Fill-1" fill="url(#linearGradient-5)"></path>
                                            </g>
                                            <path d="M46.9002111,37.482157 C45.3337772,38.391957 42.7628463,38.391957 41.1864644,37.482157 L15.5095508,23.5246436 C14.7165134,23.067067 14.3206324,22.4634228 14.3224179,21.8605433 L14.2341609,124.995973 C14.2323754,125.598852 14.6280013,126.202751 15.4212939,126.660073 L41.0979523,140.617841 C41.8774706,141.06777 42.9010985,141.295157 43.9254917,141.3 L43.9913018,141.3 C45.0159501,141.295157 46.0367722,141.06777 46.8119541,140.617841 L72.2437409,126.213402 C73.0209636,125.761943 73.4102126,125.167476 73.4114879,124.572244 L73.5,21.4368149 C73.4984695,22.0320469 73.1094756,22.6262592 72.332253,23.0777178 L46.9002111,37.482157 Z" id="Fill-4" fill="url(#linearGradient-6)"></path>
                                        </g>
                                        <g id="Group-5" opacity="0.900000036" stroke-width="1" fill="none" fill-rule="evenodd" transform="translate(48.000000, 54.600000)">
                                            <g id="Group-3">
                                                <polygon id="Clip-2" points="0.0732125623 0.145960409 60.5970439 0.145960409 60.5970439 35.9234253 0.0732125623 35.9234253"></polygon>
                                                <path d="M59.5404644,16.4628759 C60.8455814,17.2223726 60.8523382,18.4652822 59.5571452,19.2241403 L32.2744762,35.2078424 C30.9780163,35.9673391 28.8494149,35.9673391 27.5447201,35.2078424 L0.982705487,19.7477843 C-0.322411587,18.9880747 -0.327901482,17.7460166 0.968347298,16.9865199 L28.2512274,1.00281783 C29.5464205,0.24417257 31.6733327,0.243321116 32.9784497,1.00281783 L59.5404644,16.4628759 Z" id="Fill-1" fill="url(#linearGradient-5)"></path>
                                            </g>
                                            <path d="M32.3493113,34.1457978 C31.0525771,34.8867831 28.9242944,34.8867831 27.6193249,34.1457978 L1.05580553,19.0669861 C0.399308747,18.6943134 0.0715882578,18.2026762 0.0730663785,17.7116619 L4.98082816e-06,67.3100732 C-0.00147313993,67.8010875 0.326036189,68.2929323 0.982744128,68.6653973 L27.5460523,83.7444167 C28.1913576,84.1108609 29.0387432,84.2960553 29.8867622,84.3 L29.9412415,84.3 C30.7894716,84.2960553 31.6345344,84.1108609 32.2762499,83.7444167 L59.5600365,68.154867 C60.2034413,67.7871772 60.5256716,67.3030142 60.5267274,66.8182284 L60.6,17.2198171 C60.598733,17.7046029 60.2767139,18.1885583 59.633309,18.5562481 L32.3493113,34.1457978 Z" id="Fill-4" fill="url(#linearGradient-6)"></path>
                                        </g>
                                    </g>
                                </g>
                            </g>
                            <g id="Group" transform="translate(18.600000, 18.600000)" fill="#FFFFFF">
                                <rect id="Rectangle" fill-opacity="0" fill-rule="nonzero" x="15.3" y="15.3" width="16.2" height="16.2" rx="2.7"></rect>
                                <g id="Group-6" transform="translate(0.226531, 0.226531)">
                                    <polygon id="Fill-1" points="3.31121068 0 6.91694488e-05 3.31114151 17.5708384 20.8815649 20.8819799 17.5704234"></polygon>
                                    <polygon id="Fill-2" points="25.5297519 28.8409625 43.1005211 46.4113859 46.4116626 43.1002444 28.8408934 25.529821"></polygon>
                                    <polygon id="Fill-3" points="19.9129505 23.2242304 23.2244379 19.912743 26.5400754 23.2287264 23.2285881 26.5398679"></polygon>
                                    <polygon id="Fill-4" points="25.5708385 17.6983869 28.88198 21.0095284 46.4527493 3.43875915 43.1416078 0.127617633"></polygon>
                                    <polygon id="Fill-5" points="0.127617633 43.1416078 3.43875915 46.4527493 21.0095284 28.88198 17.6983869 25.5708385"></polygon>
                                </g>
                            </g>
                        </g>
                    </g>
                </g>
            </g>
        </g>
    </g>
</svg>