<?xml version="1.0" encoding="UTF-8"?>
<svg width="120px" height="40px" viewBox="0 0 120 40" version="1.1" xmlns="http://www.w3.org/2000/svg" xmlns:xlink="http://www.w3.org/1999/xlink">
    <!-- Generator: Sketch 51.2 (57519) - http://www.bohemiancoding.com/sketch -->
    <title>Material/AppStore</title>
    <desc>Created with Sketch.</desc>
    <defs></defs>
    <g id="Page-1" stroke="none" stroke-width="1" fill="none" fill-rule="evenodd" opacity="1">
        <g id="WEB_Product_Xwallet_Overview" transform="translate(-907.000000, -4440.000000)" fill-rule="nonzero">
            <g id="Group-23" transform="translate(0.000000, 4342.000000)">
                <g id="Group-22">
                    <g id="Group-17" transform="translate(305.000000, 80.000000)">
                        <g id="Material/AppStore" transform="translate(602.000000, 18.000000)">
                            <rect id="Rectangle-path" fill-opacity="0" fill="#000000" x="0" y="0" width="119.664" height="40.0001"></rect>
                            <rect id="Rectangle-path" fill-opacity="0" fill="#000000" x="0" y="0" width="119.664" height="40.0001"></rect>
                            <rect id="Rectangle-path" fill-opacity="0" fill="#000000" x="0" y="0" width="119.664" height="40.0001"></rect>
                            <rect id="Rectangle-path" fill-opacity="0" fill="#000000" x="0" y="0" width="119.664" height="40.0001"></rect>
                            <path d="M110.135,0.00013 L9.53468,0.00013 C9.16798,0.00013 8.80568,0.00013 8.43995,0.00213 C8.1338,0.00413 7.83009,0.00994 7.521,0.01483 C6.84951,0.0227318 6.17961,0.0818063 5.5171,0.19154 C4.85552,0.303663 4.21467,0.515046 3.61622,0.81854 C3.0185,1.1246 2.47235,1.5223 1.99757,1.9972 C1.5203,2.47077 1.12246,3.01815 0.81935,3.61829 C0.5154,4.21724 0.304641,4.85907 0.19435,5.52161 C0.0830109,6.18332 0.0230984,6.85265 0.01515,7.52361 C0.00587,7.83021 0.00489,8.13783 0,8.44447 L0,31.5587 C0.00489,31.8692 0.00587,32.17 0.01515,32.4806 C0.0231008,33.1516 0.0830134,33.8209 0.19435,34.4825 C0.304336,35.1455 0.515108,35.7877 0.81935,36.3868 C1.12233,36.985 1.52022,37.5302 1.99757,38.0011 C2.47054,38.4781 3.01705,38.8761 3.61622,39.1798 C4.21467,39.4841 4.85545,39.6968 5.5171,39.8106 C6.17972,39.9195 6.84956,39.9786 7.521,39.9874 C7.83009,39.9942 8.1338,39.9981 8.43995,39.9981 C8.80567,40.0001 9.168,40.0001 9.53468,40.0001 L110.135,40.0001 C110.494,40.0001 110.859,40.0001 111.219,39.9981 C111.523,39.9981 111.836,39.9942 112.141,39.9874 C112.811,39.9791 113.479,39.92 114.141,39.8106 C114.804,39.696 115.448,39.4834 116.049,39.1798 C116.647,38.8759 117.193,38.478 117.666,38.0011 C118.142,37.5284 118.541,36.9836 118.848,36.3868 C119.15,35.7872 119.358,35.1451 119.467,34.4825 C119.578,33.8208 119.64,33.1516 119.652,32.4806 C119.656,32.17 119.656,31.8692 119.656,31.5587 C119.664,31.1954 119.664,30.8341 119.664,30.4649 L119.664,9.53626 C119.664,9.17005 119.664,8.80677 119.656,8.44447 C119.656,8.13783 119.656,7.83021 119.652,7.52357 C119.64,6.85255 119.578,6.18337 119.467,5.52157 C119.358,4.85941 119.149,4.21763 118.848,3.61825 C118.23,2.41533 117.252,1.43616 116.049,0.81845 C115.448,0.515697 114.804,0.30437 114.141,0.19145 C113.48,0.0812328 112.811,0.0221378 112.141,0.01469 C111.836,0.00981 111.523,0.00395 111.219,0.002 C110.859,0 110.494,0 110.135,0 L110.135,0.00013 Z" id="Shape" fill="#000000"></path>
                            <path d="M8.44487,39.1251 C8.14019,39.1251 7.84287,39.1212 7.54058,39.1144 C6.91436,39.1063 6.2896,39.0517 5.67144,38.9513 C5.09503,38.852 4.53664,38.6674 4.0147,38.4034 C3.49754,38.1416 3.02585,37.7984 2.6177,37.3868 C2.20364,36.9801 1.85891,36.5084 1.59719,35.9903 C1.33258,35.4689 1.14945,34.91 1.05419,34.3331 C0.951311,33.7132 0.895651,33.0864 0.887687,32.4581 C0.881347,32.2472 0.873047,31.545 0.873047,31.545 L0.873047,8.44446 C0.873047,8.44446 0.881887,7.75305 0.887737,7.54992 C0.895363,6.9226 0.950699,6.29678 1.05327,5.67785 C1.14871,5.09937 1.33197,4.53887 1.59673,4.01575 C1.85749,3.49807 2.2003,3.02598 2.61187,2.6178 C3.02297,2.20574 3.49617,1.86073 4.01421,1.59533 C4.53495,1.33222 5.09228,1.14885 5.66753,1.05139 C6.28772,0.949958 6.91465,0.895118 7.54304,0.887332 L8.44536,0.875122 L111.214,0.875122 L112.127,0.887822 C112.75,0.895221 113.371,0.949572 113.985,1.05041 C114.566,1.1491 115.13,1.33374 115.656,1.59826 C116.694,2.13311 117.539,2.97929 118.071,4.01819 C118.332,4.5377 118.512,5.09363 118.607,5.66711 C118.71,6.29111 118.768,6.92186 118.78,7.55432 C118.783,7.83752 118.783,8.14172 118.783,8.44446 C118.791,8.81946 118.791,9.17639 118.791,9.53625 L118.791,30.4649 C118.791,30.8282 118.791,31.1827 118.783,31.5401 C118.783,31.8653 118.783,32.1632 118.779,32.4698 C118.768,33.091 118.711,33.7105 118.608,34.3233 C118.515,34.9044 118.333,35.4676 118.068,35.9933 C117.805,36.5057 117.462,36.9734 117.053,37.379 C116.644,37.7928 116.172,38.1381 115.653,38.4015 C115.128,38.6675 114.566,38.8529 113.985,38.9513 C113.367,39.0523 112.742,39.1068 112.116,39.1144 C111.823,39.1212 111.517,39.1251 111.219,39.1251 L110.135,39.1271 L8.44487,39.1251 Z" id="Shape" fill="#000000"></path>
                            <rect id="Rectangle-path" fill-opacity="0" fill="#000000" x="9.97168" y="8.7204" width="99.5163" height="24.7709"></rect>
                            <rect id="Rectangle-path" fill-opacity="0" fill="#000000" x="9.97168" y="8.7204" width="17.7166" height="21.776"></rect>
                            <rect id="Rectangle-path" fill-opacity="0" fill="#000000" x="9.97168" y="8.7204" width="17.7166" height="21.776"></rect>
                            <path d="M24.769,20.3008 C24.7797,19.4662 25.0014,18.6478 25.4135,17.9218 C25.8255,17.1959 26.4145,16.5859 27.1256,16.1488 C26.6738,15.5036 26.0779,14.9727 25.385,14.5981 C24.6922,14.2236 23.9216,14.0157 23.1344,13.9911 C21.4552,13.8148 19.8272,14.9959 18.9715,14.9959 C18.0992,14.9959 16.7817,14.0086 15.363,14.0378 C14.4453,14.0674 13.551,14.3343 12.7671,14.8123 C11.9832,15.2904 11.3365,15.9633 10.8901,16.7656 C8.95607,20.1141 10.3987,25.0351 12.2513,27.7417 C13.1782,29.0671 14.2615,30.5475 15.6789,30.495 C17.066,30.4375 17.584,29.6105 19.2583,29.6105 C20.9171,29.6105 21.4031,30.495 22.8493,30.4616 C24.3377,30.4375 25.2754,29.1304 26.1698,27.7925 C26.8358,26.8481 27.3483,25.8044 27.6882,24.7 C26.8235,24.3343 26.0856,23.7221 25.5665,22.9398 C25.0474,22.1575 24.77,21.2397 24.769,20.3008 Z" id="Shape" fill="#FFFFFF"></path>
                            <path d="M22.0376,12.211 C22.8491,11.2368 23.2489,9.98463 23.1521,8.7204 C21.9123,8.85062 20.767,9.44318 19.9445,10.38 C19.5424,10.8377 19.2344,11.3701 19.0381,11.9469 C18.8419,12.5236 18.7612,13.1334 18.8008,13.7414 C19.4209,13.7478 20.0344,13.6134 20.5951,13.3483 C21.1558,13.0832 21.649,12.6943 22.0376,12.211 Z" id="Shape" fill="#FFFFFF"></path>
                            <rect id="Rectangle-path" fill-opacity="0" fill="#000000" x="34.4277" y="17.8712" width="75.0606" height="15.6202"></rect>
                            <path d="M42.3027,27.1397 L37.5693,27.1397 L36.4326,30.4962 L34.4277,30.4962 L38.9111,18.0782 L40.9941,18.0782 L45.4775,30.4962 L43.4385,30.4962 L42.3027,27.1397 Z M38.0596,25.5909 L41.8116,25.5909 L39.962,20.1436 L39.9102,20.1436 L38.0596,25.5909 Z" id="Shape" fill="#FFFFFF"></path>
                            <path d="M55.1602,25.9698 C55.1602,28.7833 53.6543,30.5909 51.3819,30.5909 C50.8062,30.621 50.2337,30.4884 49.7299,30.2083 C49.2261,29.9281 48.8114,29.5118 48.5332,29.0069 L48.4902,29.0069 L48.4902,33.4913 L46.6318,33.4913 L46.6318,21.4425 L48.4307,21.4425 L48.4307,22.9483 L48.4649,22.9483 C48.7558,22.4459 49.1776,22.0317 49.6852,21.7498 C50.1928,21.468 50.7674,21.329 51.3477,21.3477 C53.6455,21.3477 55.1602,23.1641 55.1602,25.9698 Z M53.25,25.9698 C53.25,24.1368 52.3028,22.9317 50.8574,22.9317 C49.4375,22.9317 48.4824,24.1622 48.4824,25.9698 C48.4824,27.794 49.4375,29.0157 50.8574,29.0157 C52.3028,29.0157 53.25,27.8194 53.25,25.9698 Z" id="Shape" fill="#FFFFFF"></path>
                            <path d="M65.125,25.9699 C65.125,28.7833 63.6192,30.591 61.3467,30.591 C60.7711,30.6211 60.1986,30.4885 59.6948,30.2083 C59.191,29.9282 58.7762,29.5118 58.4981,29.007 L58.4551,29.007 L58.4551,33.4913 L56.5967,33.4913 L56.5967,21.4425 L58.3955,21.4425 L58.3955,22.9484 L58.4297,22.9484 C58.7206,22.4459 59.1424,22.0317 59.65,21.7499 C60.1576,21.468 60.7322,21.3291 61.3125,21.3478 C63.6104,21.3478 65.125,23.1642 65.125,25.9699 Z M63.2149,25.9699 C63.2149,24.1369 62.2676,22.9318 60.8223,22.9318 C59.4024,22.9318 58.4473,24.1623 58.4473,25.9699 C58.4473,27.7941 59.4024,29.0158 60.8223,29.0158 C62.2676,29.0158 63.2149,27.8195 63.2149,25.9699 Z" id="Shape" fill="#FFFFFF"></path>
                            <path d="M71.711,27.0362 C71.8487,28.2677 73.045,29.0762 74.6797,29.0762 C76.2461,29.0762 77.3731,28.2677 77.3731,27.1573 C77.3731,26.1934 76.6934,25.6163 75.084,25.2208 L73.4746,24.8331 C71.1944,24.2823 70.1358,23.2159 70.1358,21.4854 C70.1358,19.3428 72.003,17.8712 74.6543,17.8712 C77.2783,17.8712 79.0772,19.3428 79.1377,21.4854 L77.2617,21.4854 C77.1494,20.2462 76.125,19.4981 74.6279,19.4981 C73.1309,19.4981 72.1065,20.255 72.1065,21.3565 C72.1065,22.2344 72.7608,22.751 74.3613,23.1465 L75.7295,23.4825 C78.2773,24.085 79.3359,25.1085 79.3359,26.9248 C79.3359,29.2481 77.4854,30.7032 74.542,30.7032 C71.7881,30.7032 69.9287,29.2823 69.8086,27.0362 L71.711,27.0362 Z" id="Shape" fill="#FFFFFF"></path>
                            <path d="M83.3467,19.2999 L83.3467,21.4425 L85.0684,21.4425 L85.0684,22.9142 L83.3467,22.9142 L83.3467,27.9054 C83.3467,28.6808 83.6914,29.0421 84.4482,29.0421 C84.6526,29.0386 84.8567,29.0242 85.0596,28.9991 L85.0596,30.462 C84.7193,30.5256 84.3734,30.5544 84.0273,30.5479 C82.1943,30.5479 81.4795,29.8595 81.4795,28.1036 L81.4795,22.9142 L80.1631,22.9142 L80.1631,21.4425 L81.4795,21.4425 L81.4795,19.2999 L83.3467,19.2999 Z" id="Shape" fill="#FFFFFF"></path>
                            <path d="M86.0654,25.9698 C86.0654,23.1212 87.7432,21.3312 90.3594,21.3312 C92.9844,21.3312 94.6543,23.1212 94.6543,25.9698 C94.6543,28.8263 92.9932,30.6085 90.3594,30.6085 C87.7265,30.6085 86.0654,28.8263 86.0654,25.9698 Z M92.7607,25.9698 C92.7607,24.0157 91.8652,22.8624 90.3594,22.8624 C88.8535,22.8624 87.959,24.0245 87.959,25.9698 C87.959,27.9318 88.8535,29.0763 90.3594,29.0763 C91.8652,29.0763 92.7607,27.9318 92.7607,25.9698 Z" id="Shape" fill="#FFFFFF"></path>
                            <path d="M96.1865,21.4425 L97.959,21.4425 L97.959,22.9835 L98.002,22.9835 C98.1219,22.5022 98.4039,22.0769 98.8005,21.779 C99.197,21.4811 99.6841,21.3288 100.18,21.3478 C100.394,21.347 100.607,21.3703 100.816,21.4171 L100.816,23.1554 C100.546,23.0728 100.264,23.0348 99.9814,23.0431 C99.7115,23.0321 99.4423,23.0797 99.1925,23.1826 C98.9426,23.2855 98.718,23.4412 98.534,23.6391 C98.3501,23.837 98.2111,24.0724 98.1267,24.3291 C98.0422,24.5857 98.0143,24.8576 98.0449,25.1261 L98.0449,30.4962 L96.1865,30.4962 L96.1865,21.4425 Z" id="Shape" fill="#FFFFFF"></path>
                            <path d="M109.385,27.837 C109.135,29.4806 107.534,30.6085 105.486,30.6085 C102.853,30.6085 101.218,28.8439 101.218,26.0128 C101.218,23.173 102.861,21.3312 105.408,21.3312 C107.913,21.3312 109.488,23.0519 109.488,25.797 L109.488,26.4337 L103.094,26.4337 L103.094,26.546 C103.064,26.8792 103.106,27.2149 103.216,27.5307 C103.326,27.8466 103.502,28.1353 103.733,28.3779 C103.963,28.6204 104.242,28.8112 104.552,28.9375 C104.862,29.0638 105.195,29.1228 105.529,29.1105 C105.968,29.1516 106.409,29.0499 106.786,28.8205 C107.163,28.591 107.455,28.2461 107.62,27.837 L109.385,27.837 Z M103.102987,25.1349 L107.629,25.1349 C107.646,24.8353 107.6,24.5355 107.495,24.2543 C107.391,23.9731 107.229,23.7165 107.021,23.5008 C106.812,23.285 106.561,23.1147 106.284,23.0004 C106.006,22.8862 105.708,22.8306 105.408,22.837 C105.106,22.8352 104.806,22.8934 104.526,23.0081 C104.245,23.1229 103.991,23.2919 103.777,23.5056 C103.562,23.7192 103.392,23.9732 103.277,24.2528 C103.161,24.5325 103.102,24.8323 103.102987,25.1349 Z" id="Shape" fill="#FFFFFF"></path>
                            <rect id="Rectangle-path" fill-opacity="0" fill="#000000" x="35.6709" y="8.43713" width="69.144" height="6.35832"></rect>
                            <rect id="Rectangle-path" fill-opacity="0" fill="#000000" x="35.6709" y="8.43713" width="69.144" height="6.35832"></rect>
                            <path d="M37.8262,8.73114 C38.2158,8.70318 38.6067,8.76204 38.9709,8.90347 C39.335,9.0449 39.6632,9.26538 39.9317,9.54901 C40.2003,9.83263 40.4026,10.1723 40.524,10.5436 C40.6454,10.9149 40.6829,11.3085 40.6338,11.696 C40.6338,13.6022 39.6035,14.698 37.8262,14.698 L35.6709,14.698 L35.6709,8.73114 L37.8262,8.73114 Z M36.5976,13.8541 L37.7226,13.8541 C38.0011,13.8708 38.2797,13.8251 38.5382,13.7205 C38.7967,13.6159 39.0287,13.455 39.2172,13.2494 C39.4057,13.0438 39.546,12.7988 39.6278,12.5322 C39.7097,12.2656 39.7311,11.9841 39.6904,11.7081 C39.7281,11.4333 39.7046,11.1535 39.6215,10.8889 C39.5383,10.6242 39.3977,10.3812 39.2096,10.1773 C39.0216,9.97334 38.7907,9.81353 38.5337,9.70929 C38.2766,9.60506 37.9996,9.55897 37.7226,9.57435 L36.5976,9.57435 L36.5976,13.8541 Z" id="Shape" fill="#FFFFFF"></path>
                            <path d="M41.6809,12.4445 C41.6526,12.1486 41.6865,11.85 41.7803,11.5679 C41.8742,11.2858 42.0259,11.0265 42.2259,10.8065 C42.4258,10.5865 42.6695,10.4108 42.9414,10.2905 C43.2132,10.1702 43.5072,10.1081 43.8045,10.1081 C44.1017,10.1081 44.3957,10.1702 44.6676,10.2905 C44.9394,10.4108 45.1832,10.5865 45.3831,10.8065 C45.583,11.0265 45.7348,11.2858 45.8286,11.5679 C45.9225,11.85 45.9563,12.1486 45.928,12.4445 C45.9569,12.7407 45.9234,13.0397 45.8298,13.3222 C45.7362,13.6047 45.5846,13.8645 45.3846,14.085 C45.1846,14.3054 44.9407,14.4815 44.6686,14.602 C44.3964,14.7226 44.1021,14.7848 43.8045,14.7848 C43.5069,14.7848 43.2125,14.7226 42.9404,14.602 C42.6683,14.4815 42.4244,14.3054 42.2244,14.085 C42.0244,13.8645 41.8727,13.6047 41.7791,13.3222 C41.6855,13.0397 41.6521,12.7407 41.6809,12.4445 Z M45.0139,12.4445 C45.0139,11.4684 44.5755,10.8976 43.8059,10.8976 C43.0335,10.8976 42.5989,11.4684 42.5989,12.4445 C42.5989,13.4284 43.0335,13.9948 43.8059,13.9948 C44.5755,13.9948 45.014,13.4245 45.014,12.4445 L45.0139,12.4445 Z" id="Shape" fill="#FFFFFF"></path>
                            <polygon id="Shape" fill="#FFFFFF" points="51.5732 14.6979 50.6514 14.6979 49.7207 11.3815 49.6504 11.3815 48.7236 14.6979 47.8105 14.6979 46.5693 10.1949 47.4707 10.1949 48.2773 13.6309 48.3438 13.6309 49.2695 10.1949 50.1221 10.1949 51.0479 13.6309 51.1182 13.6309 51.9209 10.1949 52.8096 10.1949"></polygon>
                            <path d="M53.8535,10.1949 L54.709,10.1949 L54.709,10.9103 L54.7754,10.9103 C54.888,10.6533 55.0781,10.438 55.3189,10.2942 C55.5598,10.1504 55.8395,10.0853 56.1191,10.108 C56.3382,10.0915 56.5582,10.1246 56.7628,10.2047 C56.9674,10.2848 57.1514,10.4099 57.3011,10.5707 C57.4508,10.7316 57.5623,10.924 57.6275,11.1338 C57.6927,11.3437 57.7099,11.5655 57.6777,11.7828 L57.6777,14.6978 L56.7891,14.6978 L56.7891,12.006 C56.7891,11.2823 56.4746,10.9225 55.8174,10.9225 C55.6686,10.9155 55.5201,10.9409 55.3821,10.9967 C55.244,11.0525 55.1197,11.1375 55.0175,11.2459 C54.9154,11.3543 54.8379,11.4835 54.7904,11.6246 C54.7429,11.7658 54.7264,11.9155 54.7422,12.0636 L54.7422,14.6979 L53.8535,14.6979 L53.8535,10.1949 Z" id="Shape" fill="#FFFFFF"></path>
                            <polygon id="Shape" fill="#FFFFFF" points="59.0938 8.43713 59.9824 8.43713 59.9824 14.6979 59.0938 14.6979"></polygon>
                            <path d="M61.218,12.4445 C61.1897,12.1486 61.2236,11.85 61.3175,11.5679 C61.4113,11.2858 61.5631,11.0265 61.7631,10.8065 C61.963,10.5865 62.2068,10.4107 62.4786,10.2904 C62.7505,10.1702 63.0445,10.108 63.3418,10.108 C63.6391,10.108 63.9331,10.1702 64.205,10.2904 C64.4768,10.4107 64.7206,10.5865 64.9205,10.8065 C65.1205,11.0265 65.2723,11.2858 65.3661,11.5679 C65.46,11.85 65.4939,12.1486 65.4656,12.4445 C65.4944,12.7407 65.4609,13.0397 65.3673,13.3222 C65.2737,13.6048 65.122,13.8646 64.922,14.085 C64.722,14.3054 64.478,14.4815 64.2059,14.602 C63.9338,14.7226 63.6394,14.7848 63.3418,14.7848 C63.0442,14.7848 62.7498,14.7226 62.4777,14.602 C62.2056,14.4815 61.9617,14.3054 61.7616,14.085 C61.5616,13.8646 61.4099,13.6048 61.3163,13.3222 C61.2227,13.0397 61.1892,12.7407 61.218,12.4445 Z M64.551,12.4445 C64.551,11.4684 64.1125,10.8976 63.343,10.8976 C62.5706,10.8976 62.136,11.4684 62.136,12.4445 C62.136,13.4284 62.5706,13.9948 63.343,13.9948 C64.1126,13.9948 64.551,13.4245 64.551,12.4445 Z" id="Shape" fill="#FFFFFF"></path>
                            <path d="M66.4004,13.4244 C66.4004,12.6139 67.0039,12.1466 68.0752,12.0802 L69.2949,12.0099 L69.2949,11.6212 C69.2949,11.1456 68.9805,10.8771 68.373,10.8771 C67.877,10.8771 67.5332,11.0592 67.4346,11.3776 L66.5742,11.3776 C66.665,10.6041 67.3926,10.108 68.4141,10.108 C69.543,10.108 70.1797,10.67 70.1797,11.6212 L70.1797,14.6979 L69.3242,14.6979 L69.3242,14.0651 L69.2539,14.0651 C69.1112,14.2921 68.9108,14.4771 68.6732,14.6013 C68.4355,14.7255 68.1692,14.7844 67.9014,14.7721 C67.7123,14.7917 67.5213,14.7716 67.3405,14.7129 C67.1598,14.6542 66.9933,14.5582 66.8519,14.4313 C66.7105,14.3043 66.5972,14.1491 66.5195,13.9757 C66.4417,13.8023 66.4011,13.6145 66.4004,13.4244 Z M69.2949,13.0397 L69.2949,12.6632 L68.1953,12.7335 C67.5752,12.775 67.2939,12.986 67.2939,13.3829 C67.2939,13.7882 67.6455,14.024 68.1289,14.024 C68.2706,14.0384 68.4137,14.0241 68.5497,13.982 C68.6857,13.9399 68.8118,13.8709 68.9206,13.779 C69.0294,13.6872 69.1186,13.5744 69.1829,13.4474 C69.2472,13.3204 69.2853,13.1817 69.2949,13.0397 Z" id="Shape" fill="#FFFFFF"></path>
                            <path d="M71.3477,12.4445 C71.3477,11.0216 72.0791,10.1203 73.2168,10.1203 C73.4982,10.1073 73.7775,10.1747 74.022,10.3146 C74.2666,10.4545 74.4662,10.6611 74.5977,10.9103 L74.6641,10.9103 L74.6641,8.43713 L75.5527,8.43713 L75.5527,14.6979 L74.7012,14.6979 L74.7012,13.9864 L74.6309,13.9864 C74.4893,14.2339 74.2826,14.438 74.0334,14.5765 C73.7841,14.7149 73.5017,14.7826 73.2168,14.7721 C72.0713,14.7721 71.3477,13.8707 71.3477,12.4445 Z M72.2657,12.4445 C72.2657,13.3996 72.7159,13.9743 73.4688,13.9743 C74.2178,13.9743 74.6807,13.3913 74.6807,12.4484 C74.6807,11.5099 74.2129,10.9186 73.4688,10.9186 C72.7207,10.9186 72.2656,11.4972 72.2656,12.4445 L72.2657,12.4445 Z" id="Shape" fill="#FFFFFF"></path>
                            <path d="M79.2298,12.4445 C79.2015,12.1486 79.2353,11.85 79.3292,11.5679 C79.423,11.2858 79.5748,11.0265 79.7747,10.8065 C79.9746,10.5865 80.2183,10.4108 80.4902,10.2905 C80.762,10.1702 81.056,10.1081 81.3533,10.1081 C81.6506,10.1081 81.9446,10.1702 82.2164,10.2905 C82.4883,10.4108 82.732,10.5865 82.9319,10.8065 C83.1319,11.0265 83.2836,11.2858 83.3775,11.5679 C83.4713,11.85 83.5052,12.1486 83.4768,12.4445 C83.5057,12.7407 83.4722,13.0397 83.3786,13.3222 C83.2851,13.6047 83.1334,13.8645 82.9334,14.085 C82.7334,14.3054 82.4895,14.4815 82.2174,14.602 C81.9453,14.7226 81.6509,14.7848 81.3533,14.7848 C81.0557,14.7848 80.7613,14.7226 80.4892,14.602 C80.2171,14.4815 79.9732,14.3054 79.7732,14.085 C79.5732,13.8645 79.4216,13.6047 79.328,13.3222 C79.2344,13.0397 79.2009,12.7407 79.2298,12.4445 Z M82.5628,12.4445 C82.5628,11.4684 82.1243,10.8976 81.3548,10.8976 C80.5823,10.8976 80.1478,11.4684 80.1478,12.4445 C80.1478,13.4284 80.5823,13.9948 81.3548,13.9948 C82.1243,13.9948 82.5628,13.4245 82.5628,12.4445 Z" id="Shape" fill="#FFFFFF"></path>
                            <path d="M84.6689,10.1949 L85.5244,10.1949 L85.5244,10.9103 L85.5908,10.9103 C85.7035,10.6533 85.8935,10.438 86.1344,10.2942 C86.3752,10.1504 86.655,10.0853 86.9346,10.108 C87.1537,10.0915 87.3737,10.1246 87.5783,10.2047 C87.7829,10.2848 87.9668,10.4099 88.1165,10.5707 C88.2662,10.7316 88.3778,10.924 88.443,11.1338 C88.5082,11.3437 88.5253,11.5655 88.4932,11.7828 L88.4932,14.6978 L87.6045,14.6978 L87.6045,12.006 C87.6045,11.2823 87.2901,10.9225 86.6328,10.9225 C86.4841,10.9155 86.3356,10.9409 86.1975,10.9967 C86.0594,11.0525 85.9351,11.1375 85.833,11.2459 C85.7308,11.3543 85.6534,11.4835 85.6058,11.6246 C85.5583,11.7658 85.5419,11.9155 85.5576,12.0636 L85.5576,14.6979 L84.6689,14.6979 L84.6689,10.1949 Z" id="Shape" fill="#FFFFFF"></path>
                            <path d="M93.5146,9.07385 L93.5146,10.2155 L94.4902,10.2155 L94.4902,10.964 L93.5146,10.964 L93.5146,13.2794 C93.5146,13.7511 93.709,13.9576 94.1514,13.9576 C94.2646,13.9573 94.3778,13.9504 94.4902,13.9371 L94.4902,14.6774 C94.3307,14.7059 94.169,14.7211 94.0068,14.7228 C93.0186,14.7228 92.625,14.3751 92.625,13.507 L92.625,10.964 L91.9102,10.964 L91.9102,10.2154 L92.625,10.2154 L92.625,9.07385 L93.5146,9.07385 Z" id="Shape" fill="#FFFFFF"></path>
                            <path d="M95.7051,8.43713 L96.5859,8.43713 L96.5859,10.9186 L96.6562,10.9186 C96.7744,10.6593 96.9696,10.4427 97.2153,10.2983 C97.461,10.154 97.7452,10.0889 98.0292,10.1119 C98.2472,10.1001 98.4651,10.1365 98.6674,10.2185 C98.8697,10.3006 99.0513,10.4262 99.1995,10.5866 C99.3476,10.7469 99.4585,10.938 99.5243,11.1461 C99.5901,11.3542 99.6091,11.5743 99.58,11.7907 L99.58,14.6979 L98.6905,14.6979 L98.6905,12.0099 C98.6905,11.2906 98.3555,10.9264 97.7276,10.9264 C97.5748,10.9139 97.4212,10.9349 97.2774,10.9879 C97.1337,11.041 97.0032,11.1248 96.8952,11.2335 C96.7872,11.3423 96.7043,11.4733 96.6522,11.6174 C96.6002,11.7616 96.5802,11.9153 96.5938,12.068 L96.5938,14.6979 L95.7051,14.6979 L95.7051,8.43713 Z" id="Shape" fill="#FFFFFF"></path>
                            <path d="M104.761,13.4821 C104.641,13.8936 104.379,14.2496 104.022,14.4877 C103.666,14.7259 103.237,14.831 102.81,14.7848 C102.514,14.7926 102.219,14.7358 101.946,14.6183 C101.674,14.5008 101.43,14.3253 101.232,14.1042 C101.034,13.8831 100.887,13.6215 100.8,13.3377 C100.713,13.0539 100.69,12.7546 100.73,12.4606 C100.691,12.1657 100.715,11.8658 100.801,11.5811 C100.888,11.2964 101.035,11.0337 101.231,10.8106 C101.428,10.5875 101.671,10.4093 101.943,10.2881 C102.214,10.1669 102.509,10.1055 102.806,10.108 C104.059,10.108 104.815,10.964 104.815,12.378 L104.815,12.6881 L101.635,12.6881 L101.635,12.7379 C101.621,12.9032 101.642,13.0695 101.696,13.2263 C101.751,13.383 101.837,13.5267 101.95,13.6482 C102.063,13.7696 102.2,13.8662 102.352,13.9316 C102.504,13.9969 102.669,14.0298 102.835,14.0279 C103.047,14.0535 103.263,14.0152 103.453,13.918 C103.644,13.8208 103.802,13.669 103.906,13.482 L104.761,13.4821 Z M101.635,12.0309 L103.91,12.0309 C103.921,11.8798 103.9,11.728 103.85,11.5853 C103.799,11.4425 103.718,11.3121 103.614,11.2022 C103.51,11.0923 103.383,11.0055 103.243,10.9474 C103.103,10.8892 102.953,10.8609 102.801,10.8644 C102.648,10.8625 102.495,10.8913 102.353,10.9493 C102.21,11.0072 102.081,11.0931 101.972,11.2018 C101.864,11.3105 101.778,11.4399 101.72,11.5823 C101.662,11.7247 101.633,11.8772 101.635,12.0309 Z" id="Shape" fill="#FFFFFF"></path>
                        </g>
                    </g>
                </g>
            </g>
        </g>
    </g>
</svg>