<?xml version="1.0" encoding="UTF-8"?>
<svg width="135px" height="40px" viewBox="0 0 135 40" version="1.1" xmlns="http://www.w3.org/2000/svg" xmlns:xlink="http://www.w3.org/1999/xlink">
    <!-- Generator: Sketch 51.2 (57519) - http://www.bohemiancoding.com/sketch -->
    <title>Material/GooglePlay</title>
    <desc>Created with Sketch.</desc>
    <defs>
        <linearGradient x1="90.7661538%" y1="4.8392%" x2="-38.3292308%" y2="71.9688%" id="linearGradient-1">
            <stop stop-color="#00A0FF" offset="0%"></stop>
            <stop stop-color="#00A1FF" offset="0.657445%"></stop>
            <stop stop-color="#00BEFF" offset="26.01%"></stop>
            <stop stop-color="#00D2FF" offset="51.22%"></stop>
            <stop stop-color="#00DFFF" offset="76.04%"></stop>
            <stop stop-color="#00E3FF" offset="100%"></stop>
        </linearGradient>
        <linearGradient x1="107.727094%" y1="49.4294118%" x2="-130.666108%" y2="49.4294118%" id="linearGradient-2">
            <stop stop-color="#FFE000" offset="0%"></stop>
            <stop stop-color="#FFBD00" offset="40.87%"></stop>
            <stop stop-color="#FFA500" offset="77.54%"></stop>
            <stop stop-color="#FF9C00" offset="100%"></stop>
        </linearGradient>
        <linearGradient x1="86.3886228%" y1="17.8158218%" x2="-49.8886826%" y2="194.393566%" id="linearGradient-3">
            <stop stop-color="#FF3A44" offset="0%"></stop>
            <stop stop-color="#C31162" offset="100%"></stop>
        </linearGradient>
        <linearGradient x1="-18.5797006%" y1="-54.5258315%" x2="42.2742515%" y2="24.6909401%" id="linearGradient-4">
            <stop stop-color="#32A071" offset="0%"></stop>
            <stop stop-color="#2DA771" offset="6.85%"></stop>
            <stop stop-color="#15CF74" offset="47.62%"></stop>
            <stop stop-color="#06E775" offset="80.09%"></stop>
            <stop stop-color="#00F076" offset="100%"></stop>
        </linearGradient>
    </defs>
    <g id="Page-1" stroke="none" stroke-width="1" fill="none" fill-rule="evenodd">
        <g id="WEB_Product_Xwallet_Overview" transform="translate(-612.000000, -4440.000000)" fill-rule="nonzero">
            <g id="Group-23" transform="translate(0.000000, 4342.000000)">
                <g id="Group-22">
                    <g id="Group-17" transform="translate(305.000000, 80.000000)">
                        <g id="Material/GooglePlay" transform="translate(307.000000, 18.000000)">
                            <rect id="Rectangle-path" fill-opacity="0" fill="#000000" x="0" y="0" width="135" height="40"></rect>
                            <rect id="Rectangle-path" fill-opacity="0" fill="#000000" x="0" y="0" width="135" height="40"></rect>
                            <rect id="Rectangle-path" fill-opacity="0" fill="#000000" x="0" y="0" width="135" height="40"></rect>
                            <path d="M130,40 L5,40 C2.2,40 0,37.8 0,35 L0,5 C0,2.2 2.2,0 5,0 L130,0 C132.8,0 135,2.2 135,5 L135,35 C135,37.8 132.8,40 130,40 Z" id="Shape" fill="#000000"></path>
                            <rect id="Rectangle-path" fill-opacity="0" fill="#000000" x="41.4004" y="6.90002" width="38.8" height="6.2"></rect>
                            <path d="M47.4004,10.2 C47.4004,11 47.2004,11.7 46.7004,12.2 C46.1004,12.8 45.4004,13.1 44.5004,13.1 C43.6004,13.1 42.9004,12.8 42.3004,12.2 C41.7004,11.6 41.4004,10.9 41.4004,10 C41.4004,9.10002 41.7004,8.40002 42.3004,7.80002 C42.9004,7.20002 43.6004,6.90002 44.5004,6.90002 C44.9004,6.90002 45.3004,7.00002 45.7004,7.20002 C46.1004,7.40002 46.4004,7.60002 46.6004,7.90002 L46.1004,8.40002 C45.7004,7.90002 45.2004,7.70002 44.5004,7.70002 C43.9004,7.70002 43.3004,7.90002 42.9004,8.40002 C42.4004,8.80002 42.2004,9.40002 42.2004,10.1 C42.2004,10.8 42.4004,11.4 42.9004,11.8 C43.4004,12.2 43.9004,12.5 44.5004,12.5 C45.2004,12.5 45.7004,12.3 46.2004,11.8 C46.5004,11.5 46.7004,11.1 46.7004,10.6 L44.5004,10.6 L44.5004,9.80002 L47.4004,9.80002 C47.4004,9.90002 47.4004,10.1 47.4004,10.2 Z" id="Shape" stroke="#FFFFFF" stroke-width="0.2" fill="#FFFFFF"></path>
                            <polygon id="Shape" stroke="#FFFFFF" stroke-width="0.2" fill="#FFFFFF" points="52 7.7 49.3 7.7 49.3 9.6 51.8 9.6 51.8 10.3 49.3 10.3 49.3 12.2 52 12.2 52 13 48.5 13 48.5 7 52 7"></polygon>
                            <polygon id="Shape" stroke="#FFFFFF" stroke-width="0.2" fill="#FFFFFF" points="55.3008 13 54.5008 13 54.5008 7.7 52.8008 7.7 52.8008 7 57.0008 7 57.0008 7.7 55.3008 7.7"></polygon>
                            <polygon id="Shape" stroke="#FFFFFF" stroke-width="0.2" fill="#FFFFFF" points="59.9004 13 59.9004 7 60.7004 7 60.7004 13"></polygon>
                            <polygon id="Shape" stroke="#FFFFFF" stroke-width="0.2" fill="#FFFFFF" points="64.1006 13 63.3006 13 63.3006 7.7 61.6006 7.7 61.6006 7 65.7006 7 65.7006 7.7 64.0006 7.7 64.0006 13"></polygon>
                            <path d="M73.6008,12.2 C73.0008,12.8 72.3008,13.1 71.4008,13.1 C70.5008,13.1 69.8008,12.8 69.2008,12.2 C68.6008,11.6 68.3008,10.9 68.3008,10 C68.3008,9.10002 68.6008,8.40002 69.2008,7.80002 C69.8008,7.20002 70.5008,6.90002 71.4008,6.90002 C72.3008,6.90002 73.0008,7.20002 73.6008,7.80002 C74.2008,8.40002 74.5008,9.10002 74.5008,10 C74.5008,10.9 74.2008,11.6 73.6008,12.2 Z M69.8008,11.7 C70.2008,12.1 70.8008,12.4 71.4008,12.4 C72.0008,12.4 72.6008,12.2 73.0008,11.7 C73.4008,11.3 73.7008,10.7 73.7008,10 C73.7008,9.30002 73.5008,8.70002 73.0008,8.30002 C72.6008,7.90002 72.0008,7.60002 71.4008,7.60002 C70.8008,7.60002 70.2008,7.80002 69.8008,8.30002 C69.4008,8.70002 69.1008,9.30002 69.1008,10 C69.1008,10.7 69.3008,11.3 69.8008,11.7 Z" id="Shape" stroke="#FFFFFF" stroke-width="0.2" fill="#FFFFFF"></path>
                            <polygon id="Shape" stroke="#FFFFFF" stroke-width="0.2" fill="#FFFFFF" points="75.6006 13 75.6006 7 76.5006 7 79.4006 11.7 79.4006 10.5 79.4006 7 80.2006 7 80.2006 13 79.4006 13 76.3006 8.1 76.3006 9.3 76.3006 13"></polygon>
                            <path d="M68.0996,21.8 C65.6996,21.8 63.7996,23.6 63.7996,26.1 C63.7996,28.5 65.6996,30.4 68.0996,30.4 C70.4996,30.4 72.3996,28.6 72.3996,26.1 C72.3996,23.5 70.4996,21.8 68.0996,21.8 Z M68.0996,28.6 C66.7996,28.6 65.6996,27.5 65.6996,26 C65.6996,24.5 66.7996,23.4 68.0996,23.4 C69.3996,23.4 70.4996,24.4 70.4996,26 C70.4996,27.5 69.3996,28.6 68.0996,28.6 Z M58.7996,21.8 C56.3996,21.8 54.4996,23.6 54.4996,26.1 C54.4996,28.5 56.3996,30.4 58.7996,30.4 C61.1996,30.4 63.0996,28.6 63.0996,26.1 C63.0996,23.5 61.1996,21.8 58.7996,21.8 Z M58.7996,28.6 C57.4996,28.6 56.3996,27.5 56.3996,26 C56.3996,24.5 57.4996,23.4 58.7996,23.4 C60.0996,23.4 61.1996,24.4 61.1996,26 C61.1996,27.5 60.0996,28.6 58.7996,28.6 Z M47.6996,23.1 L47.6996,24.9 L51.9996,24.9 C51.8996,25.9 51.4996,26.7 50.9996,27.2 C50.3996,27.8 49.3996,28.5 47.6996,28.5 C44.9996,28.5 42.9996,26.4 42.9996,23.7 C42.9996,21 45.0996,18.9 47.6996,18.9 C49.0996,18.9 50.1996,19.5 50.9996,20.2 L52.2996,18.9 C51.1996,17.9 49.7996,17.1 47.7996,17.1 C44.1996,17.1 41.0996,20.1 41.0996,23.7 C41.0996,27.3 44.1996,30.3 47.7996,30.3 C49.7996,30.3 51.1996,29.7 52.3996,28.4 C53.5996,27.2 53.9996,25.5 53.9996,24.2 C53.9996,23.8 53.9996,23.4 53.8996,23.1 L47.6996,23.1 Z M93.0996,24.5 C92.6996,23.5 91.6996,21.8 89.4996,21.8 C87.2996,21.8 85.4996,23.5 85.4996,26.1 C85.4996,28.5 87.2996,30.4 89.6996,30.4 C91.5996,30.4 92.7996,29.2 93.1996,28.5 L91.7996,27.5 C91.2996,28.2 90.6996,28.7 89.6996,28.7 C88.6996,28.7 88.0996,28.3 87.5996,27.4 L93.2996,25 L93.0996,24.5 Z M87.2996,25.9 C87.2996,24.3 88.5996,23.4 89.4996,23.4 C90.1996,23.4 90.8996,23.8 91.0996,24.3 L87.2996,25.9 Z M82.5996,30 L84.4996,30 L84.4996,17.5 L82.5996,17.5 L82.5996,30 Z M79.5996,22.7 C79.0996,22.2 78.2996,21.7 77.2996,21.7 C75.1996,21.7 73.1996,23.6 73.1996,26 C73.1996,28.4 75.0996,30.2 77.2996,30.2 C78.2996,30.2 79.0996,29.7 79.4996,29.2 L79.5996,29.2 L79.5996,29.8 C79.5996,31.4 78.6996,32.3 77.2996,32.3 C76.1996,32.3 75.3996,31.5 75.1996,30.8 L73.5996,31.5 C74.0996,32.6 75.2996,34 77.3996,34 C79.5996,34 81.3996,32.7 81.3996,29.6 L81.3996,22 L79.5996,22 L79.5996,22.7 Z M77.3996,28.6 C76.0996,28.6 74.9996,27.5 74.9996,26 C74.9996,24.5 76.0996,23.4 77.3996,23.4 C78.6996,23.4 79.6996,24.5 79.6996,26 C79.6996,27.5 78.6996,28.6 77.3996,28.6 Z M101.8,17.5 L97.2996,17.5 L97.2996,30 L99.1996,30 L99.1996,25.3 L101.8,25.3 C103.9,25.3 105.9,23.8 105.9,21.4 C105.9,19 103.9,17.5 101.8,17.5 Z M101.9,23.5 L99.1996,23.5 L99.1996,19.2 L101.9,19.2 C103.3,19.2 104.1,20.4 104.1,21.3 C104,22.4 103.2,23.5 101.9,23.5 Z M113.4,21.7 C112,21.7 110.6,22.3 110.1,23.6 L111.8,24.3 C112.2,23.6 112.8,23.4 113.5,23.4 C114.5,23.4 115.4,24 115.5,25 L115.5,25.1 C115.2,24.9 114.4,24.6 113.6,24.6 C111.8,24.6 110,25.6 110,27.4 C110,29.1 111.5,30.2 113.1,30.2 C114.4,30.2 115,29.6 115.5,29 L115.6,29 L115.6,30 L117.4,30 L117.4,25.2 C117.2,23 115.5,21.7 113.4,21.7 Z M113.2,28.6 C112.6,28.6 111.7,28.3 111.7,27.5 C111.7,26.5 112.8,26.2 113.7,26.2 C114.5,26.2 114.9,26.4 115.4,26.6 C115.2,27.8 114.2,28.6 113.2,28.6 Z M123.7,22 L121.6,27.4 L121.5,27.4 L119.3,22 L117.3,22 L120.6,29.6 L118.7,33.8 L120.6,33.8 L125.7,22 L123.7,22 Z M106.9,30 L108.8,30 L108.8,17.5 L106.9,17.5 L106.9,30 Z" id="Shape" fill="#FFFFFF"></path>
                            <rect id="Rectangle-path" fill-opacity="0" fill="#000000" x="10" y="7.14722" width="23.05" height="25.7414"></rect>
                            <path d="M10.4,7.5 C10.1,7.8 10,8.3 10,8.9 L10,31 C10,31.6 10.2,32.1 10.5,32.4 L10.6,32.5 L23,20.1 L23,20 L23,19.9 L10.4,7.5 Z" id="Shape" fill="url(#linearGradient-1)"></path>
                            <path d="M27.0004,24.3 L22.9004,20.2 L22.9004,20 L22.9004,19.9 L27.0004,15.8 L27.1004,15.9 L32.0004,18.7 C33.4004,19.5 33.4004,20.8 32.0004,21.6 L27.0004,24.3 Z" id="Shape" fill="url(#linearGradient-2)"></path>
                            <path d="M27.1004,24.2 L22.9004,20 L10.4004,32.5 C10.9004,33 11.6004,33 12.5004,32.6 L27.1004,24.2 Z" id="Shape" fill="url(#linearGradient-3)"></path>
                            <path d="M27.1004,15.8 L12.5004,7.49999 C11.6004,6.99999 10.9004,7.09999 10.4004,7.59999 L22.9004,20 L27.1004,15.8 Z" id="Shape" fill="url(#linearGradient-4)"></path>
                            <rect id="Rectangle-path" fill-opacity="0" fill="#000000" x="10" y="24.1" width="17" height="8.73853"></rect>
                            <path d="M27.0004,24.1 L12.5004,32.3 C11.7004,32.8 11.0004,32.7 10.5004,32.3 L10.4004,32.4 L10.5004,32.5 C11.0004,32.9 11.7004,33 12.5004,32.5 L27.0004,24.1 Z" id="Shape" fill="#000000" opacity="0.2"></path>
                            <path d="M10.4,32.3 C10.1,32 10,31.5 10,30.9 L10,31 C10,31.6 10.2,32.1 10.5,32.4 L10.5,32.3 L10.4,32.3 Z" id="Shape" fill="#000000" opacity="0.12"></path>
                            <path d="M32,21.3 L27,24.1 L27.1,24.2 L32,21.4 C32.7,21 33,20.5 33,20 C33,20.5 32.6,20.9 32,21.3 Z" id="Shape" fill="#000000" opacity="0.12"></path>
                            <path d="M12.5,7.60003 L32,18.7 C32.6,19.1 33,19.5 33,20 C33,19.5 32.7,19 32,18.6 L12.5,7.50003 C11.1,6.70003 10,7.30003 10,8.90003 L10,9.00003 C10,7.50003 11.1,6.80003 12.5,7.60003 Z" id="Shape" fill="#FFFFFF" opacity="0.25"></path>
                        </g>
                    </g>
                </g>
            </g>
        </g>
    </g>
</svg>